<?xml version="1.0" encoding="UTF-8" standalone="no"?>
<!DOCTYPE svg PUBLIC "-//W3C//DTD SVG 1.1//EN" "http://www.w3.org/Graphics/SVG/1.1/DTD/svg11.dtd">
<svg width="100%" height="100%" viewBox="0 0 21 21" version="1.1" xmlns="http://www.w3.org/2000/svg" xmlns:xlink="http://www.w3.org/1999/xlink" xml:space="preserve" xmlns:serif="http://www.serif.com/" style="fill-rule:evenodd;clip-rule:evenodd;stroke-linejoin:round;stroke-miterlimit:2;">
    <g transform="matrix(1,0,0,1,-1371.85,-426.147)">
        <g transform="matrix(1,0,0,1,906.5,-313.102)">
            <g transform="matrix(0.877927,0,0,0.877927,81.6281,91.7745)">
                <path d="M448.68,737.504C455.087,737.504 460.288,742.705 460.288,749.111C460.288,755.518 455.087,760.719 448.68,760.719C442.274,760.719 437.073,755.518 437.073,749.111C437.073,742.705 442.274,737.504 448.68,737.504ZM443.35,753.389L448.602,747.69L453.978,753.4L455.988,751.508L448.581,743.641L441.32,751.519L443.35,753.389Z" style="fill:white;fill-opacity:0.9;"/>
            </g>
        </g>
    </g>
</svg>
